<?xml version="1.0" encoding="utf-8"?>
<!-- Generator: Adobe Illustrator 15.0.0, SVG Export Plug-In . SVG Version: 6.00 Build 0)  -->
<!DOCTYPE svg PUBLIC "-//W3C//DTD SVG 1.1//EN" "http://www.w3.org/Graphics/SVG/1.1/DTD/svg11.dtd">
<svg version="1.1" id="Calque_1" xmlns="http://www.w3.org/2000/svg" xmlns:xlink="http://www.w3.org/1999/xlink" x="0px" y="0px"
	 width="260px" height="260px" viewBox="0 0 260 260" enable-background="new 0 0 260 260" xml:space="preserve">
<path d="M213.047,222.982H45.953c-5.743,0-10.4-4.654-10.4-10.399s4.657-10.399,10.4-10.399h167.094c5.746,0,10.4,4.654,10.4,10.399
	S218.793,222.982,213.047,222.982z"/>
<path d="M184.994,116.422c-4.058-4.06-10.647-4.06-14.705,0L139.9,146.812V48.084c0-5.743-4.655-10.4-10.4-10.4
	c-5.743,0-10.4,4.657-10.4,10.4v98.728l-30.387-30.387c-4.058-4.061-10.646-4.062-14.708,0c-4.062,4.062-4.062,10.646,0,14.708
	l48.136,48.141c0.48,0.479,1.006,0.912,1.572,1.29c0.142,0.094,0.302,0.153,0.445,0.241c0.433,0.262,0.869,0.52,1.341,0.716
	c0.206,0.087,0.431,0.129,0.641,0.2c0.429,0.146,0.851,0.303,1.3,0.395c0.672,0.135,1.36,0.208,2.057,0.208
	c0.697,0,1.385-0.071,2.057-0.208c0.431-0.088,0.832-0.239,1.242-0.379c0.23-0.076,0.477-0.123,0.701-0.216
	c0.459-0.191,0.884-0.445,1.307-0.696c0.155-0.094,0.326-0.158,0.476-0.261c0.567-0.383,1.099-0.815,1.581-1.298l48.133-48.133
	C189.057,127.07,189.057,120.485,184.994,116.422z"/>
</svg>
